# xmcd CD database file
#
# Track frame offsets:
#	150
#	7520
#	30292
#	57387
#	79060
#	109592
#	137080
#	156000
#	181260
#	207185
#	238202
#
# Disc length: 3430 seconds
#
# Revision: 10
# Processed by: cddbd v1.5.2PL0 Copyright (c) Steve Scherf et al.
# Submitted via: CDex 1.70beta3
#
DISCID=7d0d640b
DTITLE=華原朋美 - LOVE BRACE
DYEAR=1996
DGENRE=JPop
TTITLE0=LOVE BRACE(overture)
TTITLE1=Just a real love night
TTITLE2=keep yourself alive(more rock)
TTITLE3=Living on・・・!
TTITLE4=I BELIEVE(album earth mix)
TTITLE5=summer visit
TTITLE6=MOONLIGHT
TTITLE7=I'm proud(full version)
TTITLE8=Somebody loves you
TTITLE9=LOVE BRACE
TTITLE10=I BELIEVE(play piano)
EXTD=YEAR: 1996
EXTT0=
EXTT1=
EXTT2=
EXTT3=
EXTT4=
EXTT5=
EXTT6=
EXTT7=
EXTT8=
EXTT9=
EXTT10=
PLAYORDER=
